<?xml version="1.0" encoding="utf-8"?>
<svg viewBox="5.155 11.322 37.403 37.359" width="37.403px" height="37.359px" xmlns="http://www.w3.org/2000/svg">
  <path d="M39.17 13.265a17.24 17.24 0 0 1-1.998 3.544c-4.778-4.776-11.755-6.613-18.265-4.8S7.357 18.966 5.717 25.52 6.086 39 10.98 43.66l.693.612a18.75 18.75 0 0 0 30.781-13.005c.51-4.775-.89-10.817-3.284-18zM13.647 43.767c-.408.504-1.08.713-1.702.53s-1.072-.725-1.14-1.37.26-1.267.83-1.577 1.27-.244 1.774.164c.687.557.793 1.566.236 2.254zm25.444-5.616c-4.628 6.165-14.51 4.086-20.847 4.384 0 0-1.123.066-2.254.252 0 0 .426-.182.972-.387 4.45-1.55 6.553-1.847 9.256-3.238 5.09-2.587 10.123-8.253 11.17-14.143-1.936 5.666-7.815 10.538-13.167 12.517-3.668 1.352-10.294 2.668-10.294 2.668l-.267-.143C9.15 37.87 9.01 28.106 17.2 24.957c3.6-1.383 7.025-.624 10.902-1.55 4.14-.984 8.93-4.086 10.88-8.133 2.18 6.475 4.806 16.6.097 22.88z" fill="#68bd45"/>
</svg>